<?xml version="1.0" encoding="UTF-8"?>
<svg id="Layer_1" xmlns="http://www.w3.org/2000/svg" version="1.1" viewBox="0 0 426.667 384.593">
  <!-- Generator: Adobe Illustrator 30.7.0, SVG Export Plug-In . SVG Version: 2.1.4 Build 114)  -->
  <defs>
    <style>
      .st0 {
        fill-rule: evenodd;
      }
    </style>
  </defs>
  <path class="st0" d="M116.203,2.855c10.529,5.271,14.797,18.074,9.536,28.608l-48.555,97.131h272.299l-48.555-97.131c-5.592-10.37-1.719-23.311,8.652-28.903s23.311-1.719,28.903,8.652c.209.387.405.78.59,1.179l58.112,116.203h8.149c11.782,0,21.333,9.551,21.333,21.333s-9.551,21.333-21.333,21.333h-3.84l-32.384,161.877c-5.98,29.92-32.251,51.458-62.763,51.456H120.32c-30.512.002-56.782-21.536-62.763-51.456L25.173,171.26h-3.84c-11.782,0-21.333-9.551-21.333-21.333s9.551-21.333,21.333-21.333h8.149L87.595,12.391c5.271-10.529,18.074-14.797,28.608-9.536M68.693,171.26l30.699,153.515c1.992,9.968,10.741,17.146,20.907,17.152h186.048c10.173.004,18.934-7.176,20.928-17.152l30.72-153.515H68.693ZM149.333,235.26c0-11.782,9.551-21.333,21.333-21.333h85.333c11.782,0,21.333,9.551,21.333,21.333s-9.551,21.333-21.333,21.333h-85.333c-11.782,0-21.333-9.551-21.333-21.333" data-original="#000000"/>
</svg>